<svg id="Layer_1" data-name="Layer 1" xmlns="http://www.w3.org/2000/svg" width="370" height="71" viewBox="0 0 370 71">
  <title>highlight</title>
  <path d="M201.87,69.25c-3.21,0-5.89-.09-8.27-.24-3.63-.72-2.15.14-6.39-.56,1.19-1.84-1-.32-1.87-.18-1.13.13-.22.17-4-.25-1.46.34-.37-3.12-7.1-.76,1-1.85-3.66-1.11-11-.87-3.62-1.81-9.65-.5-15.82-.63-19.24-.39-43.2-.87-51.9-.74l-5,.07c-2.5,3.19-7.08.07-9.8.13A18.43,18.43,0,0,0,74.89,65c-2.34.14-4.92.4-7.3.43-5-1.22-7.4,1.48-9.86.14-3.62.35-5.65-.13-10.24.14-3.45-.16-9.86-1.23-10.18.14.59.4-8.32-.55-9.1.64a26.45,26.45,0,0,1-8.3-.4c-5.18-.28-9.58,2-12.73.17s-5,1.21-5.18.07V63c-1.64-5.67,2.35-.62,0-4.63-2.76-1.88-2.28-4.22,0-8.58-2.94.32,1.88-5.9,0-6.1,1.81-1.53-3.56-10.93,0-11.54,1.51-.2-1.72-.61,0,3.63,1.62-5.16-2-2.93.71-3-5.54-1.59,1.93-3.19,1.79-4.91-2.14.23-1.19-2.37.11-5.07S9,15,6.82,17.13c.33,2.31,4.37-7.24,2.33-3.92,4.48,2.85.47-4.68,1.78-5.81,2.19,1-1.88-2.38.72-2.1-2,1.57,2.18-2.49,4.44-.07,1.87-.29,6.06,0,10.14-.15,4.28.24,9.8-1.9,13.91-.22,2.33-1.12,11.1,2.55,15.73-.25l8-.12c3.67-1.37,8.23-1,7.67-.12,3-1,3.47-1.65,9.39-.14,3.59,1.56,5.83-1,7.9-.12A28,28,0,0,1,94.62,4c2.6-.12,4.55-2.34,7.27,0,5.47-.88,8.46-.79,9.69.1L123,4.28c2.69,0,6.88,3,8.3.15,1.06-1.89,5.2.67,8.59.17,4.56-1.48,6.91,0,8.71.17,1.22,1.76,10.9-4.72,14.29.81,4.62-1,6.17.16,12.68,1.18,3.53.34,6.15.59,7.22.56a67.54,67.54,0,0,1,10.91.48c1.61.17,3.33.36,5.92.43s6,0,11.12-.26c4.16,2.65,3.13-2.5,8.74-1.52,4-1.35,6.23,1,8.32-1.5C230.09,4.6,238,3.5,240,4.21c1.79-2.34,7.5-.42,10.91-.57s6.59-.27,9.52-.32c3.76-.07,16.72-.36,32.47-.72,5.25-.11,12.23,2.85,16.44-.37,2.87-2.16,10.7-1.85,16.87-.38,5.59.59,11-.87,15.89-.36l13.47-.31L365.22,1c1.37,0,2.47-1.11,3.23-.07.76.33,1.19-.13,1.24,0,0-.17-.09.07-.22,1-.06,1.17-.14,1.74-.22,2.53s-.17.59-.26,1.5a16.41,16.41,0,0,1-.25,3.29c-.09,1.78-.16.66-.23-.3-.13-4.12-.22.42-.22,2,0-1.78,0-2.76-.05-1.07,0,.48-.1,2.93-.16,2.61-.13,1.87-.3,5-.47,3.39-.17.92-.34,3.87-.47,3.39-.13,4.53-.21-2.89-.21,1.54,0,3.33-.2,0-.5,1.08-.3-.08-.71,1.25-1.11,3-.2-1.13-.4,1.86-.59.87a22.74,22.74,0,0,1-.51,2.8c-.16,1.46-.28,2.84-.37,3s-.14.07-.14-2.6c0,2,0,1.68.1,1.44,0-3.45.07-2.42.11.38A23.41,23.41,0,0,0,364,34.2c0-1.06.08-.21.12-.67,0-1.23.08,1.79.11,2.89a24.35,24.35,0,0,1,.1,3c0,4.39-.06,7-.15,3.87-.09-2.54-.22,4.65-.37-.12-.15,2.25-.32,1.6-.49,3.82-.16-1.11-.33-1.7-.48,3.15-.15.55-.28,5-.37,3.1-.09-2.24-.15,5.52-.15.65s-.07,2-.17.89c-.1,4.75-.24,7-.38,3.1-.14,4.51-.28,2.86-.38,3.07-.1,1.48-.17,2.39-.17.92-.26-2.76-.93,1.3-1.95,0-.51.82-1.11-3.79-1.8,0-.68-3.2-1.45-1.75-2.29.06a16.92,16.92,0,0,1-5.38.14l-6.65.17-14.62.37c-4.22-1.32-10.74,1.36-16.38.41-4.7-.63-12.5-1.51-16.51.41l-15,.37c-9.15.23-16.22.39-19,.45-7.49.14-17.94.78-30.05,1.52-5.49.34-11.29,2.7-17.35,3C209.34,69.14,205.31,69.25,201.87,69.25Z" fill="#f5dd29"/>
</svg>
